<?xml version="1.0" encoding="utf-8"?>
<!-- Generator: Adobe Illustrator 15.0.2, SVG Export Plug-In . SVG Version: 6.00 Build 0)  -->
<!DOCTYPE svg PUBLIC "-//W3C//DTD SVG 1.1//EN" "http://www.w3.org/Graphics/SVG/1.1/DTD/svg11.dtd">
<svg version="1.1" id="Layer_1" xmlns="http://www.w3.org/2000/svg" xmlns:xlink="http://www.w3.org/1999/xlink" x="0px" y="0px"
	 width="1315.2px" height="1135.624px" viewBox="0 0 1315.2 1135.624" enable-background="new 0 0 1315.2 1135.624"
	 xml:space="preserve">
<g>
	<g>
		
			<linearGradient id="SVGID_1_" gradientUnits="userSpaceOnUse" x1="195.9326" y1="461.6528" x2="195.9326" y2="559.5396" gradientTransform="matrix(1 0 0 1 459.0435 456.5449)">
			<stop  offset="0" style="stop-color:#828282"/>
			<stop  offset="0.0258" style="stop-color:#828282;stop-opacity:0.9742"/>
			<stop  offset="1" style="stop-color:#828282;stop-opacity:0"/>
		</linearGradient>
		<path opacity="0.25" fill="url(#SVGID_1_)" d="M33.841,1007.085c0-24.05,19.535-43.612,43.547-43.612h1155.375
			c24.014,0,43.55,19.562,43.55,43.612v128.538h2.504v-128.086c0-25.486-20.705-46.222-46.154-46.222H77.292
			c-25.45,0-46.156,20.735-46.156,46.222v128.086h2.705V1007.085z"/>
		
			<linearGradient id="SVGID_2_" gradientUnits="userSpaceOnUse" x1="196.0332" y1="507.228" x2="196.0332" y2="675.3929" gradientTransform="matrix(1 0 0 1 459.0435 456.5449)">
			<stop  offset="0" style="stop-color:#828282"/>
			<stop  offset="0.0258" style="stop-color:#828282;stop-opacity:0.9742"/>
			<stop  offset="1" style="stop-color:#828282;stop-opacity:0"/>
		</linearGradient>
		<path opacity="0.25" fill="url(#SVGID_2_)" d="M1232.764,963.473H77.388c-24.013,0-43.547,19.562-43.547,43.612v128.538h0.611
			v-128.442c0-11.864,4.834-22.615,12.632-30.389c7.759-7.785,18.48-12.608,30.304-12.608h1155.375
			c23.62,0,42.837,19.246,42.837,42.901v128.538h0.713v-128.538C1276.313,983.036,1256.777,963.473,1232.764,963.473z"/>
		
			<linearGradient id="SVGID_3_" gradientUnits="userSpaceOnUse" x1="195.7544" y1="503.4272" x2="195.7544" y2="668.1478" gradientTransform="matrix(1 0 0 1 459.0435 456.5449)">
			<stop  offset="0" style="stop-color:#828282"/>
			<stop  offset="0.0258" style="stop-color:#828282;stop-opacity:0.9742"/>
			<stop  offset="1" style="stop-color:#828282;stop-opacity:0"/>
		</linearGradient>
		<path opacity="0.25" fill="url(#SVGID_3_)" d="M1237.418,960.845c-0.076-0.007-0.155-0.01-0.234-0.02
			c-0.701-0.067-1.408-0.125-2.123-0.162c-0.794-0.037-1.591-0.061-2.397-0.061H77.292c-0.805,0-1.605,0.023-2.399,0.061
			c-0.736,0.04-1.468,0.098-2.192,0.169c-0.055,0.006-0.113,0.007-0.168,0.013c-23.616,2.396-42.109,22.422-42.109,46.692v128.086
			h0.356h0.356v-128.086c0-25.486,20.706-46.222,46.156-46.222h1155.372c25.449,0,46.154,20.735,46.154,46.222v128.086h0.356
			v-128.442C1279.174,983.066,1260.873,963.231,1237.418,960.845z"/>
		
			<linearGradient id="SVGID_4_" gradientUnits="userSpaceOnUse" x1="195.9331" y1="507.2261" x2="195.9331" y2="679.6234" gradientTransform="matrix(1 0 0 1 459.0435 456.5449)">
			<stop  offset="0" style="stop-color:#828282"/>
			<stop  offset="0.0258" style="stop-color:#828282;stop-opacity:0.9742"/>
			<stop  offset="1" style="stop-color:#828282;stop-opacity:0"/>
		</linearGradient>
		<path opacity="0.25" fill="url(#SVGID_4_)" d="M1232.663,964.282H77.292c-11.776,0-22.455,4.784-30.208,12.511
			c-7.798,7.773-12.632,18.524-12.632,30.389v128.442h0.099h1240.951v-128.442C1275.502,983.527,1256.285,964.282,1232.663,964.282z
			"/>
	</g>
	<g>
		<image overflow="visible" width="2740" height="162" xlink:href="1E6C8C17.png"  transform="matrix(0.48 0 0 0.48 0 921.9419)">
		</image>
	</g>
</g>
<path fill="#EEEEEE" d="M1276.298,913.792c0,23.654-19.218,42.899-42.837,42.899H77.644c-23.621,0-42.837-19.245-42.837-42.899
	V46.933c0-23.655,19.217-42.9,42.837-42.9h1155.817c23.619,0,42.837,19.245,42.837,42.9V913.792 M1279.97,913.792V46.933
	c0-25.724-20.823-46.578-46.509-46.578H77.644c-25.686,0-46.508,20.854-46.508,46.578v866.858c0,25.723,20.823,46.575,46.508,46.575
	h1155.817C1259.146,960.367,1279.97,939.514,1279.97,913.792L1279.97,913.792z"/>
<path fill="#C7C7C7" d="M1277.105,913.89V47.031c0-24.046-19.535-43.611-43.548-43.611H77.742
	c-24.013,0-43.552,19.565-43.552,43.611V913.89c0,24.047,19.539,43.611,43.552,43.611h1155.816
	C1257.57,957.501,1277.105,937.937,1277.105,913.89z M77.742,956.791c-23.622,0-42.839-19.247-42.839-42.9V47.031
	c0-23.654,19.217-42.899,42.839-42.899h1155.816c23.619,0,42.837,19.245,42.837,42.899V913.89c0,23.653-19.218,42.9-42.837,42.9
	H77.742z"/>
<linearGradient id="SVGID_5_" gradientUnits="userSpaceOnUse" x1="2567.043" y1="1866.228" x2="3529.9963" y2="1866.228" gradientTransform="matrix(0 1 -1 0 2521.4243 -2568.6392)">
	<stop  offset="0" style="stop-color:#595959"/>
	<stop  offset="1" style="stop-color:#B3B3B3"/>
</linearGradient>
<path fill="url(#SVGID_5_)" d="M1279.97,913.792V46.933c0-25.88-21.024-46.933-46.865-46.933H77.289
	C51.448,0,30.423,21.053,30.423,46.933v866.858c0,25.879,21.024,46.933,46.866,46.933h1155.815
	C1258.945,960.724,1279.97,939.67,1279.97,913.792z M77.289,960.012c-25.451,0-46.153-20.734-46.153-46.221V46.933
	c0-25.487,20.703-46.221,46.153-46.221h1155.815c25.45,0,46.156,20.733,46.156,46.221v866.858c0,25.486-20.706,46.221-46.156,46.221
	H77.289z"/>
<linearGradient id="SVGID_6_" gradientUnits="userSpaceOnUse" x1="2569.333" y1="1866.312" x2="3528.6328" y2="1866.312" gradientTransform="matrix(0 1 -1 0 2521.4243 -2568.6392)">
	<stop  offset="0" style="stop-color:#B3B3B3"/>
	<stop  offset="1" style="stop-color:#D7D7D7"/>
</linearGradient>
<path fill="url(#SVGID_6_)" d="M1279.174,913.772V46.915c0-25.487-20.706-46.221-46.154-46.221H77.205
	c-25.452,0-46.154,20.734-46.154,46.221v866.857c0,25.486,20.703,46.222,46.154,46.222H1233.02
	C1258.468,959.994,1279.174,939.258,1279.174,913.772z M77.205,959.281c-25.058,0-45.444-20.414-45.444-45.509V46.915
	c0-25.094,20.386-45.508,45.444-45.508H1233.02c25.057,0,45.442,20.415,45.442,45.508v866.857c0,25.095-20.386,45.509-45.442,45.509
	H77.205z"/>
<linearGradient id="SVGID_7_" gradientUnits="userSpaceOnUse" x1="3049.001" y1="1245.1265" x2="3049.001" y2="2424.5803" gradientTransform="matrix(0 1 -1 0 2521.4243 -2568.6392)">
	<stop  offset="0" style="stop-color:#000000"/>
	<stop  offset="1" style="stop-color:#0A0A0A"/>
</linearGradient>
<path fill="url(#SVGID_7_)" d="M1233.461,956.691c23.619,0,42.837-19.245,42.837-42.899V46.933c0-23.655-19.218-42.9-42.837-42.9
	H77.644c-23.621,0-42.837,19.245-42.837,42.9v866.858c0,23.654,19.217,42.899,42.837,42.899H1233.461z"/>
<linearGradient id="SVGID_8_" gradientUnits="userSpaceOnUse" x1="3049.0996" y1="1245.9546" x2="3049.0996" y2="2486.022" gradientTransform="matrix(0 1 -1 0 2521.4243 -2568.6392)">
	<stop  offset="0" style="stop-color:#404040"/>
	<stop  offset="0.0763" style="stop-color:#404040;stop-opacity:0.8562"/>
	<stop  offset="0.5301" style="stop-color:#404040;stop-opacity:0"/>
	<stop  offset="0.9703" style="stop-color:#404040;stop-opacity:0.9368"/>
	<stop  offset="1" style="stop-color:#404040"/>
</linearGradient>
<path fill="url(#SVGID_8_)" d="M1274.404,913.89c0,22.675-18.419,41.12-41.062,41.12H77.53c-22.643,0-41.062-18.445-41.062-41.12
	V47.031c0-22.672,18.42-41.119,41.062-41.119h1155.813c22.643,0,41.062,18.447,41.062,41.119V913.89 M1275.47,913.89V47.031
	c0-23.262-18.897-42.187-42.127-42.187H77.53c-23.23,0-42.127,18.925-42.127,42.187V913.89c0,23.262,18.897,42.187,42.127,42.187
	h1155.813C1256.572,956.077,1275.47,937.152,1275.47,913.89L1275.47,913.89z"/>
<linearGradient id="SVGID_9_" gradientUnits="userSpaceOnUse" x1="3426.4434" y1="1241.8091" x2="3476.2832" y2="1241.8091" gradientTransform="matrix(0 1 -1 0 2521.4243 -2568.6392)">
	<stop  offset="0.0604" style="stop-color:#DFDFDF;stop-opacity:0"/>
	<stop  offset="0.0861" style="stop-color:#DCDCDC;stop-opacity:0.1439"/>
	<stop  offset="0.1078" style="stop-color:#D1D1D1;stop-opacity:0.2658"/>
	<stop  offset="0.1282" style="stop-color:#C0C0C0;stop-opacity:0.3796"/>
	<stop  offset="0.1475" style="stop-color:#A7A7A7;stop-opacity:0.488"/>
	<stop  offset="0.1497" style="stop-color:#A4A4A4;stop-opacity:0.5"/>
	<stop  offset="0.1762" style="stop-color:#B5B5B5;stop-opacity:0.5361"/>
	<stop  offset="0.2149" style="stop-color:#C6C6C6;stop-opacity:0.5885"/>
	<stop  offset="0.263" style="stop-color:#D1D1D1;stop-opacity:0.6538"/>
	<stop  offset="0.3305" style="stop-color:#D8D8D8;stop-opacity:0.7455"/>
	<stop  offset="0.5181" style="stop-color:#DADADA"/>
	<stop  offset="0.6998" style="stop-color:#D7D7D7;stop-opacity:0.7577"/>
	<stop  offset="0.8529" style="stop-color:#CCCCCC;stop-opacity:0.5535"/>
	<stop  offset="0.8855" style="stop-color:#C9C9C9;stop-opacity:0.51"/>
	<stop  offset="0.8923" style="stop-color:#D3D3D3;stop-opacity:0.4799"/>
	<stop  offset="0.9102" style="stop-color:#E6E6E6;stop-opacity:0.4001"/>
	<stop  offset="0.9307" style="stop-color:#F4F4F4;stop-opacity:0.3086"/>
	<stop  offset="0.956" style="stop-color:#FDFDFD;stop-opacity:0.1959"/>
	<stop  offset="1" style="stop-color:#FFFFFF;stop-opacity:0"/>
</linearGradient>
<rect x="1279.261" y="857.804" fill="url(#SVGID_9_)" width="0.709" height="49.84"/>
<g>
	
		<linearGradient id="SVGID_10_" gradientUnits="userSpaceOnUse" x1="3048.4365" y1="2467.3403" x2="3048.4365" y2="2438.6714" gradientTransform="matrix(0 1 -1 0 2521.4243 -2568.6392)">
		<stop  offset="0" style="stop-color:#5D5D5D"/>
		<stop  offset="0.2001" style="stop-color:#585858"/>
		<stop  offset="0.4429" style="stop-color:#494949"/>
		<stop  offset="0.7065" style="stop-color:#313131"/>
		<stop  offset="0.8916" style="stop-color:#1B1B1B"/>
		<stop  offset="1" style="stop-color:#1B1B1B;stop-opacity:0"/>
	</linearGradient>
	<path fill="url(#SVGID_10_)" d="M82.107,507.863c-15.478,0-28.023-12.562-28.023-28.062c0-15.501,12.545-28.067,28.023-28.067
		c15.476,0,28.03,12.566,28.03,28.067C110.137,495.3,97.583,507.863,82.107,507.863z"/>
	
		<linearGradient id="SVGID_11_" gradientUnits="userSpaceOnUse" x1="3048.4365" y1="2466.0933" x2="3048.4365" y2="2438.4978" gradientTransform="matrix(0 1 -1 0 2521.4243 -2568.6392)">
		<stop  offset="0" style="stop-color:#666666"/>
		<stop  offset="1" style="stop-color:#666666;stop-opacity:0"/>
	</linearGradient>
	<path fill="url(#SVGID_11_)" d="M55.26,479.8c0-15.305,12.23-27.737,27.436-28.054c-0.195-0.003-0.391-0.014-0.589-0.014
		c-15.478,0-28.023,12.566-28.023,28.067c0,15.5,12.545,28.062,28.023,28.062c0.198,0,0.394-0.009,0.589-0.014
		C67.491,507.535,55.26,495.101,55.26,479.8z"/>
	<g>
		
			<linearGradient id="SVGID_12_" gradientUnits="userSpaceOnUse" x1="3048.3867" y1="2408.1929" x2="3048.3867" y2="2437.0789" gradientTransform="matrix(0 1 -1 0 2521.4243 -2568.6392)">
			<stop  offset="0" style="stop-color:#141A14"/>
			<stop  offset="1" style="stop-color:#1A1A1A;stop-opacity:0"/>
		</linearGradient>
		<path fill="url(#SVGID_12_)" d="M111.704,479.761c-0.011,15.267-12.278,27.71-27.455,27.993c0.18,0,0.356,0.013,0.539,0.011
			c15.431,0.009,27.986-12.553,27.995-28.001c0.008-15.453-12.538-28.025-27.965-28.034c-0.181,0-0.362,0.011-0.543,0.013
			C99.453,452.042,111.709,464.494,111.704,479.761z"/>
	</g>
	<g>
		<g opacity="0.25">
			<path d="M90.561,486.843c0,1.44-1.172,2.616-2.615,2.616H75.777c-1.439,0-2.612-1.176-2.612-2.616v-12.19
				c0-1.441,1.173-2.616,2.612-2.616h12.169c1.443,0,2.615,1.175,2.615,2.616V486.843 M91.634,486.843v-12.19
				c0-2.036-1.654-3.687-3.688-3.687H75.777c-2.035,0-3.682,1.65-3.682,3.687v12.19c0,2.033,1.647,3.687,3.682,3.687h12.169
				C89.98,490.53,91.634,488.876,91.634,486.843L91.634,486.843z"/>
		</g>
		<g>
			
				<linearGradient id="SVGID_13_" gradientUnits="userSpaceOnUse" x1="3048.3877" y1="2430.1548" x2="3048.3877" y2="2444.5178" gradientTransform="matrix(0 1 -1 0 2521.4243 -2568.6392)">
				<stop  offset="0" style="stop-color:#45474A"/>
				<stop  offset="0.2374" style="stop-color:#4D4E52"/>
				<stop  offset="0.601" style="stop-color:#626367"/>
				<stop  offset="1" style="stop-color:#818085"/>
			</linearGradient>
			<path fill="url(#SVGID_13_)" d="M90.561,485.843c0,1.44-1.172,2.616-2.615,2.616H75.777c-1.439,0-2.612-1.176-2.612-2.616v-12.19
				c0-1.441,1.173-2.616,2.612-2.616h12.169c1.443,0,2.615,1.175,2.615,2.616V485.843 M91.634,485.843v-12.19
				c0-2.036-1.654-3.687-3.688-3.687H75.777c-2.035,0-3.682,1.65-3.682,3.687v12.19c0,2.033,1.647,3.687,3.682,3.687h12.169
				C89.98,489.53,91.634,487.876,91.634,485.843L91.634,485.843z"/>
		</g>
	</g>
</g>
<path opacity="0.35" d="M1170.184,862.831V95.724c0-2.565-2.086-4.651-4.646-4.651H142.391c-2.559,0-4.646,2.086-4.646,4.651
	v767.107c0,2.565,2.087,4.651,4.646,4.651h1023.147C1168.098,867.482,1170.184,865.396,1170.184,862.831z M142.391,866.708
	c-2.141,0-3.87-1.736-3.87-3.878V95.724c0-2.14,1.729-3.876,3.87-3.876h1023.147c2.139,0,3.872,1.736,3.872,3.876v767.107
	c0,2.142-1.733,3.878-3.872,3.878H142.391z"/>
<g>
	<g>
		
			<radialGradient id="SVGID_14_" cx="-824.8413" cy="3737.1235" r="26.2474" gradientTransform="matrix(-0.7071 -0.7081 -0.7071 0.7081 3275.8518 -2743.5293)" gradientUnits="userSpaceOnUse">
			<stop  offset="0" style="stop-color:#595959"/>
			<stop  offset="0.4488" style="stop-color:#2D2D2D"/>
			<stop  offset="0.8532" style="stop-color:#020202"/>
		</radialGradient>
		<path fill="url(#SVGID_14_)" d="M1216.028,472.214c-4.184,4.187-4.184,10.98,0,15.169c4.184,4.19,10.967,4.189,15.15,0
			c4.184-4.188,4.184-10.982,0-15.169C1226.995,468.022,1220.212,468.023,1216.028,472.214z"/>
		
			<radialGradient id="SVGID_15_" cx="-824.5737" cy="3737.98" r="20.3596" gradientTransform="matrix(-0.7071 -0.7081 -0.7071 0.7081 3275.8518 -2743.5293)" gradientUnits="userSpaceOnUse">
			<stop  offset="0" style="stop-color:#595959"/>
			<stop  offset="0.4488" style="stop-color:#2D2D2D"/>
			<stop  offset="0.8532" style="stop-color:#020202"/>
		</radialGradient>
		<path fill="url(#SVGID_15_)" d="M1216.862,473.046c-3.725,3.729-3.727,9.773,0,13.503c3.72,3.729,9.758,3.729,13.484,0
			c3.721-3.729,3.721-9.774,0-13.503C1226.62,469.319,1220.582,469.319,1216.862,473.046z"/>
		
			<linearGradient id="SVGID_16_" gradientUnits="userSpaceOnUse" x1="-825.2251" y1="3735.5269" x2="-825.2251" y2="3723.0911" gradientTransform="matrix(-0.7071 -0.7071 -0.7071 0.7071 3275.8518 -2739.5928)">
			<stop  offset="0" style="stop-color:#595959"/>
			<stop  offset="0.1569" style="stop-color:#535353"/>
			<stop  offset="0.3679" style="stop-color:#424242"/>
			<stop  offset="0.6097" style="stop-color:#262626"/>
			<stop  offset="0.8532" style="stop-color:#020202"/>
		</linearGradient>
		<path fill="url(#SVGID_16_)" d="M1217.905,474.091c-3.117,3.121-3.117,8.183,0,11.304c3.116,3.121,8.171,3.121,11.285,0
			c3.119-3.121,3.119-8.183,0-11.304C1226.076,470.968,1221.021,470.968,1217.905,474.091z"/>
		
			<radialGradient id="SVGID_17_" cx="-824.8398" cy="3719.5552" r="10.7217" gradientTransform="matrix(-0.7071 -0.7081 -0.7071 0.7081 3275.8518 -2743.5293)" gradientUnits="userSpaceOnUse">
			<stop  offset="0.1265" style="stop-color:#454545"/>
			<stop  offset="0.3126" style="stop-color:#3F3F3F"/>
			<stop  offset="0.5628" style="stop-color:#2E2E2E"/>
			<stop  offset="0.8484" style="stop-color:#121212"/>
			<stop  offset="1" style="stop-color:#000000"/>
		</radialGradient>
		<path fill="url(#SVGID_17_)" d="M1218.414,474.6c-2.866,2.872-2.866,7.523,0,10.395c2.864,2.871,7.512,2.871,10.378,0
			c2.867-2.871,2.867-7.522,0-10.394C1225.926,471.731,1221.278,471.731,1218.414,474.6z"/>
		
			<radialGradient id="SVGID_18_" cx="-824.8418" cy="3728.6089" r="6.969" gradientTransform="matrix(-0.7071 -0.7081 -0.7071 0.7081 3275.8518 -2743.5293)" gradientUnits="userSpaceOnUse">
			<stop  offset="0.4535" style="stop-color:#454545"/>
			<stop  offset="0.8532" style="stop-color:#454545;stop-opacity:0"/>
		</radialGradient>
		<path fill="url(#SVGID_18_)" d="M1218.595,474.421c-2.867,2.869-2.867,7.522,0,10.394c2.865,2.869,7.514,2.869,10.379,0
			c2.865-2.871,2.865-7.524,0-10.394C1226.108,471.55,1221.46,471.55,1218.595,474.421z"/>
		<g>
			
				<radialGradient id="SVGID_19_" cx="-824.8325" cy="3727.0991" r="5.7753" gradientTransform="matrix(-0.7071 -0.7081 -0.7071 0.7081 3275.8518 -2743.5293)" gradientUnits="userSpaceOnUse">
				<stop  offset="0" style="stop-color:#97BADA"/>
				<stop  offset="0.0553" style="stop-color:#91B5D5"/>
				<stop  offset="0.1294" style="stop-color:#80A7C6"/>
				<stop  offset="0.2139" style="stop-color:#6490AD"/>
				<stop  offset="0.2349" style="stop-color:#5C89A6"/>
				<stop  offset="0.3554" style="stop-color:#3A5F7C"/>
				<stop  offset="0.3609" style="stop-color:#3E6380"/>
				<stop  offset="0.3824" style="stop-color:#476F8C"/>
				<stop  offset="0.4126" style="stop-color:#4C7593"/>
				<stop  offset="0.494" style="stop-color:#4E7795"/>
				<stop  offset="0.4953" style="stop-color:#4C7592"/>
				<stop  offset="0.5063" style="stop-color:#3F6581"/>
				<stop  offset="0.5198" style="stop-color:#355A75"/>
				<stop  offset="0.5383" style="stop-color:#30546E"/>
				<stop  offset="0.5843" style="stop-color:#2E526C"/>
				<stop  offset="0.5911" style="stop-color:#284860"/>
				<stop  offset="0.6047" style="stop-color:#1F3B4F"/>
				<stop  offset="0.6215" style="stop-color:#193144"/>
				<stop  offset="0.6452" style="stop-color:#162C3D"/>
				<stop  offset="0.7108" style="stop-color:#152A3B"/>
				<stop  offset="0.8253" style="stop-color:#395D77"/>
				<stop  offset="0.8279" style="stop-color:#34546D"/>
				<stop  offset="0.8351" style="stop-color:#294157"/>
				<stop  offset="0.8436" style="stop-color:#213146"/>
				<stop  offset="0.8541" style="stop-color:#1B273B"/>
				<stop  offset="0.8688" style="stop-color:#182134"/>
				<stop  offset="0.9096" style="stop-color:#171F32"/>
				<stop  offset="0.9518" style="stop-color:#A2C2CD"/>
				<stop  offset="0.9553" style="stop-color:#99B6C0"/>
				<stop  offset="0.9862" style="stop-color:#495154"/>
				<stop  offset="1" style="stop-color:#292929"/>
			</radialGradient>
			<path fill="url(#SVGID_19_)" d="M1219.528,475.629c-2.273,2.279-2.273,5.971,0,8.249c2.274,2.278,5.964,2.278,8.237,0
				c2.275-2.275,2.275-5.97,0-8.249C1225.492,473.351,1221.803,473.351,1219.528,475.629z"/>
			
				<radialGradient id="SVGID_20_" cx="-823.6401" cy="3728.6802" r="5.611" gradientTransform="matrix(-0.7071 -0.7081 -0.7071 0.7081 3275.8518 -2743.5293)" gradientUnits="userSpaceOnUse">
				<stop  offset="0" style="stop-color:#152A3B;stop-opacity:0"/>
				<stop  offset="0.5738" style="stop-color:#152839;stop-opacity:0.7007"/>
				<stop  offset="0.7802" style="stop-color:#172134;stop-opacity:0.9529"/>
				<stop  offset="0.8188" style="stop-color:#171F32"/>
			</radialGradient>
			<path fill="url(#SVGID_20_)" d="M1221.043,477.148c-1.438,1.439-1.438,3.774,0,5.212c1.439,1.44,3.77,1.44,5.206,0
				c1.439-1.438,1.439-3.772,0-5.212C1224.812,475.708,1222.482,475.708,1221.043,477.148z"/>
			
				<radialGradient id="SVGID_21_" cx="-824.6348" cy="3727.2993" r="4.6896" gradientTransform="matrix(-0.7071 -0.7081 -0.7071 0.7081 3275.8518 -2743.5293)" gradientUnits="userSpaceOnUse">
				<stop  offset="0.0241" style="stop-color:#FFFFFF;stop-opacity:0"/>
				<stop  offset="0.1938" style="stop-color:#F9FDFF;stop-opacity:0.1157"/>
				<stop  offset="0.4226" style="stop-color:#E8F8FF;stop-opacity:0.2716"/>
				<stop  offset="0.5964" style="stop-color:#D6F2FF;stop-opacity:0.39"/>
				<stop  offset="0.7578" style="stop-color:#DCF5FF;stop-opacity:0.5381"/>
				<stop  offset="0.8253" style="stop-color:#E0F7FF;stop-opacity:0.6"/>
				<stop  offset="1" style="stop-color:#FFFFFF;stop-opacity:0.87"/>
			</radialGradient>
			<path fill="url(#SVGID_21_)" d="M1219.928,476.615c0.708,0.169,1.381,0.523,1.933,1.075c1.582,1.584,1.582,4.152,0,5.736
				c-0.185,0.186-0.387,0.348-0.596,0.489c-0.404-0.215-0.784-0.495-1.125-0.835C1218.366,481.304,1218.3,478.475,1219.928,476.615z
				"/>
			
				<radialGradient id="SVGID_22_" cx="3051.6318" cy="1296.02" r="6.2797" gradientTransform="matrix(0 1.0014 -1 0 2521.4243 -2572.3306)" gradientUnits="userSpaceOnUse">
				<stop  offset="0.3795" style="stop-color:#FFFFFF"/>
				<stop  offset="0.6226" style="stop-color:#FDFEFF;stop-opacity:0.6719"/>
				<stop  offset="0.7101" style="stop-color:#F6FCFF;stop-opacity:0.5536"/>
				<stop  offset="0.7723" style="stop-color:#EBF9FF;stop-opacity:0.4697"/>
				<stop  offset="0.8224" style="stop-color:#DAF3FF;stop-opacity:0.402"/>
				<stop  offset="0.8313" style="stop-color:#D6F2FF;stop-opacity:0.39"/>
				<stop  offset="0.8476" style="stop-color:#D0F0FF;stop-opacity:0.4254"/>
				<stop  offset="0.8686" style="stop-color:#C0ECFF;stop-opacity:0.4713"/>
				<stop  offset="0.8923" style="stop-color:#A5E5FF;stop-opacity:0.5229"/>
				<stop  offset="0.9178" style="stop-color:#80DBFF;stop-opacity:0.5784"/>
				<stop  offset="0.9277" style="stop-color:#70D6FF;stop-opacity:0.6"/>
				<stop  offset="1" style="stop-color:#FFFFFF;stop-opacity:0"/>
			</radialGradient>
			<path fill="url(#SVGID_22_)" d="M1227.074,483.11l-1.515-1.516c0.237-0.257,0.41-0.546,0.524-0.856l2.076,0.546
				C1227.946,481.948,1227.587,482.572,1227.074,483.11z M1227.204,476.709l-1.517,1.518c0.479,0.606,0.652,1.369,0.518,2.094
				l2.066,0.549C1228.591,479.433,1228.233,477.879,1227.204,476.709z"/>
			
				<radialGradient id="SVGID_23_" cx="-2607.3765" cy="1866.6577" r="1.4557" gradientTransform="matrix(-0.1851 -0.9841 -0.9827 0.1854 2572.522 -2431.3923)" gradientUnits="userSpaceOnUse">
				<stop  offset="0.0241" style="stop-color:#FFFFFF;stop-opacity:0"/>
				<stop  offset="1" style="stop-color:#FFFFFF;stop-opacity:0.87"/>
			</radialGradient>
			<path fill="url(#SVGID_23_)" d="M1219.885,479.21c-0.404,0.074-0.652,0.576-0.55,1.119c0.102,0.54,0.514,0.917,0.919,0.84
				c0.404-0.077,0.649-0.576,0.55-1.119C1220.699,479.511,1220.289,479.133,1219.885,479.21z"/>
			
				<radialGradient id="SVGID_24_" cx="-2607.3325" cy="1864.5151" r="0.858" gradientTransform="matrix(-0.1851 -0.9841 -0.9827 0.1854 2572.522 -2431.3923)" gradientUnits="userSpaceOnUse">
				<stop  offset="0" style="stop-color:#FFFFFF;stop-opacity:0.87"/>
				<stop  offset="1" style="stop-color:#FFFFFF;stop-opacity:0"/>
			</radialGradient>
			<path fill="url(#SVGID_24_)" d="M1222.352,479.329c-0.235,0.047-0.384,0.342-0.323,0.661s0.304,0.541,0.542,0.495
				c0.239-0.046,0.383-0.341,0.323-0.66C1222.835,479.508,1222.593,479.285,1222.352,479.329z"/>
			
				<radialGradient id="SVGID_25_" cx="-2607.2764" cy="1861.9526" r="0.584" gradientTransform="matrix(-0.1851 -0.9841 -0.9827 0.1854 2572.522 -2431.3923)" gradientUnits="userSpaceOnUse">
				<stop  offset="0" style="stop-color:#FFFFFF;stop-opacity:0.87"/>
				<stop  offset="1" style="stop-color:#FFFFFF;stop-opacity:0"/>
			</radialGradient>
			<path fill="url(#SVGID_25_)" d="M1225.03,479.055c-0.164,0.031-0.262,0.232-0.223,0.45c0.041,0.218,0.207,0.369,0.368,0.337
				c0.164-0.031,0.263-0.23,0.221-0.447C1225.357,479.177,1225.189,479.026,1225.03,479.055z"/>
		</g>
	</g>
</g>
<path fill="#EEEEEE" d="M29.473,42.17c0.005,0.056,0.007,0.112,0.012,0.167C29.479,42.282,29.478,42.226,29.473,42.17z"/>
<path fill="#EEEEEE" d="M29.651,44.531c0.04,0.797,0.062,1.597,0.062,2.402C29.713,46.128,29.691,45.328,29.651,44.531z"/>
<linearGradient id="SVGID_26_" gradientUnits="userSpaceOnUse" x1="2567.0625" y1="2491.856" x2="3529.5857" y2="2491.856" gradientTransform="matrix(0 1 -1 0 2521.4243 -2568.6392)">
	<stop  offset="0" style="stop-color:#595959"/>
	<stop  offset="1" style="stop-color:#B3B3B3"/>
</linearGradient>
<path fill="url(#SVGID_26_)" d="M29.485,42.337c0.072,0.727,0.128,1.458,0.167,2.193C29.613,43.795,29.557,43.066,29.485,42.337z"/>
</svg>
