<?xml version="1.0" encoding="utf-8"?>
<!-- Generator: Adobe Illustrator 15.0.2, SVG Export Plug-In . SVG Version: 6.00 Build 0)  -->
<!DOCTYPE svg PUBLIC "-//W3C//DTD SVG 1.1//EN" "http://www.w3.org/Graphics/SVG/1.1/DTD/svg11.dtd">
<svg version="1.1" id="Layer_1" xmlns="http://www.w3.org/2000/svg" xmlns:xlink="http://www.w3.org/1999/xlink" x="0px" y="0px"
	 width="1400.094px" height="1185.542px" viewBox="0 0 1400.094 1185.542" enable-background="new 0 0 1400.094 1185.542"
	 xml:space="preserve">
<linearGradient id="SVGID_1_" gradientUnits="userSpaceOnUse" x1="484.6797" y1="1056.708" x2="920.4463" y2="1056.708" gradientTransform="matrix(1 0 0 1 0 7.75)">
	<stop  offset="0.0241" style="stop-color:#000000;stop-opacity:0.2"/>
	<stop  offset="0.0783" style="stop-color:#000000;stop-opacity:0.1"/>
	<stop  offset="0.1084" style="stop-color:#000000;stop-opacity:0.0926"/>
	<stop  offset="0.2831" style="stop-color:#000000;stop-opacity:0.05"/>
	<stop  offset="0.7711" style="stop-color:#000000;stop-opacity:0.05"/>
	<stop  offset="0.9458" style="stop-color:#000000;stop-opacity:0.1"/>
	<stop  offset="0.9759" style="stop-color:#000000;stop-opacity:0.2"/>
</linearGradient>
<path fill="url(#SVGID_1_)" d="M918.787,1061.136l1.659-6.646c-0.501,2.566-4.942,11.71-19.149,12.792
	c-26.304,1.999-65.476,1.714-65.476,1.714H734.933h-64.74H569.304c0,0-39.172,0.285-65.477-1.714
	c-14.206-1.082-18.646-8.899-19.147-11.465l1.658,3.644c0,0,0.834,8.324,8.339,11.11c7.506,2.786,32.383,3.854,50.182,3.854
	c10.475,0,74.453,0,125.334,0c35.57,0,64.74,0,64.74,0c50.881,0,114.859,0,125.335,0c17.798,0,42.675-1.068,50.181-3.854
	C917.953,1067.785,918.787,1061.136,918.787,1061.136z"/>
<linearGradient id="SVGID_2_" gradientUnits="userSpaceOnUse" x1="702.5625" y1="1182.585" x2="702.5625" y2="1075.0309">
	<stop  offset="0" style="stop-color:#000000;stop-opacity:0"/>
	<stop  offset="0.8133" style="stop-color:#000000;stop-opacity:0.1"/>
	<stop  offset="1" style="stop-color:#000000;stop-opacity:0.2"/>
</linearGradient>
<path fill="url(#SVGID_2_)" d="M734.933,1074.442c0,0-29.17,0-64.74,0c-50.881,0-114.859,0-125.334,0
	c-1.195,0-2.423-0.006-3.673-0.017c7.739,22.934,13.25,110.574,13.25,110.574h115.757h64.74h115.757c0,0,5.51-87.641,13.25-110.574
	c-1.25,0.011-2.478,0.017-3.672,0.017C849.792,1074.442,785.813,1074.442,734.933,1074.442z"/>
<path fill="#050505" d="M1358.828,0H41.172C18.433,0,0,18.426,0,41.156v698.454v71.484c0,22.732,18.433,41.156,41.172,41.156
	h1317.656c22.738,0,41.172-18.424,41.172-41.156v-71.484V41.156C1400,18.426,1381.566,0,1358.828,0z"/>
<path fill="#323337" d="M1340.036,60.019c0.948,0,1.715,0.768,1.715,1.715v719.859c0,0.948-0.767,1.716-1.715,1.716H60.122
	c-0.946,0-1.715-0.768-1.715-1.716V61.733c0-0.947,0.769-1.715,1.715-1.715H1340.036 M1340.036,57.103H60.122
	c-2.553,0-4.632,2.077-4.632,4.63v719.859c0,2.554,2.079,4.631,4.632,4.631h1279.915c2.555,0,4.633-2.077,4.633-4.631V61.733
	C1344.669,59.18,1342.591,57.103,1340.036,57.103L1340.036,57.103z"/>
<path opacity="0.75" d="M918.75,1056.183c-0.266,2.163-1.494,5.831-6.587,7.72c-7.505,2.787-34.098,3.855-51.896,3.855
	c-10.476,0-74.454,0-125.335,0c0,0-29.17,0-64.74,0c-50.881,0-114.859,0-125.334,0c-17.799,0-44.391-1.068-51.896-3.855
	c-5.093-1.889-6.32-5.557-6.587-7.72h-0.037c0,0-0.881,6.647,6.624,9.435c7.506,2.786,34.098,3.854,51.896,3.854
	c10.475,0,74.453,0,125.334,0c35.57,0,64.74,0,64.74,0c50.881,0,114.859,0,125.335,0c17.798,0,44.391-1.068,51.896-3.854
	c7.506-2.787,6.624-9.435,6.624-9.435H918.75z"/>
<linearGradient id="SVGID_3_" gradientUnits="userSpaceOnUse" x1="702.5625" y1="852.751" x2="702.5625" y2="1062.319">
	<stop  offset="0" style="stop-color:#757575"/>
	<stop  offset="5.414583e-04" style="stop-color:#757575"/>
	<stop  offset="0.1506" style="stop-color:#9B9CA0"/>
	<stop  offset="0.2079" style="stop-color:#A3A4A8"/>
	<stop  offset="0.2975" style="stop-color:#B9BABE"/>
	<stop  offset="0.4077" style="stop-color:#DDDEE2"/>
	<stop  offset="0.4121" style="stop-color:#DFE0E4"/>
	<stop  offset="0.4545" style="stop-color:#DFE0E4"/>
	<stop  offset="0.5125" style="stop-color:#BFC0C4"/>
	<stop  offset="0.5816" style="stop-color:#A0A1A5"/>
	<stop  offset="0.6402" style="stop-color:#8D8E92"/>
	<stop  offset="0.6807" style="stop-color:#86878B"/>
	<stop  offset="0.7682" style="stop-color:#8A8B8F"/>
	<stop  offset="1" style="stop-color:#8D8E92"/>
</linearGradient>
<path fill="url(#SVGID_3_)" d="M916.736,1048.633c-3.716-3.145-42.603-37.441-51.18-51.733
	c-8.578-14.291-16.582-144.649-16.582-144.649H734.933h-64.74H554.436c0,0-6.29,130.358-14.867,144.649
	c-8.577,14.292-47.465,48.589-51.18,51.733c-3.716,3.143-10.865,10.001,15.438,12.004c26.305,2,65.477,1.716,65.477,1.716h100.889
	h64.74h100.889c0,0,39.172,0.284,65.476-1.716C927.601,1058.634,920.453,1051.775,916.736,1048.633z"/>
<linearGradient id="SVGID_4_" gradientUnits="userSpaceOnUse" x1="702.5625" y1="931.748" x2="702.5625" y2="1031.3269">
	<stop  offset="0" style="stop-color:#747579;stop-opacity:0"/>
	<stop  offset="0.4495" style="stop-color:#747579"/>
	<stop  offset="0.6084" style="stop-color:#65666A"/>
	<stop  offset="0.6525" style="stop-color:#6A6B6F;stop-opacity:0.8874"/>
	<stop  offset="1" style="stop-color:#8A8B8F;stop-opacity:0"/>
</linearGradient>
<path fill="url(#SVGID_4_)" d="M916.736,1048.633c-3.716-3.145-42.603-37.441-51.18-51.733
	c-8.578-14.291-16.582-144.649-16.582-144.649H734.933h-64.74H554.436c0,0-6.29,130.358-14.867,144.649
	c-8.577,14.292-47.465,48.589-51.18,51.733c-3.716,3.143-10.865,10.001,15.438,12.004c26.305,2,65.477,1.716,65.477,1.716h100.889
	h64.74h100.889c0,0,39.172,0.284,65.476-1.716C927.601,1058.634,920.453,1051.775,916.736,1048.633z"/>
<linearGradient id="SVGID_5_" gradientUnits="userSpaceOnUse" x1="484.5898" y1="1061.1357" x2="920.5352" y2="1061.1357">
	<stop  offset="0.0241" style="stop-color:#575757"/>
	<stop  offset="0.0783" style="stop-color:#959595"/>
	<stop  offset="0.0904" style="stop-color:#A7A7A7"/>
	<stop  offset="0.1109" style="stop-color:#BEBEBE"/>
	<stop  offset="0.1344" style="stop-color:#D0D0D0"/>
	<stop  offset="0.1626" style="stop-color:#DDDDDD"/>
	<stop  offset="0.1999" style="stop-color:#E4E4E4"/>
	<stop  offset="0.2831" style="stop-color:#E6E6E6"/>
	<stop  offset="0.7711" style="stop-color:#E6E6E6"/>
	<stop  offset="0.8082" style="stop-color:#E2E2E2"/>
	<stop  offset="0.848" style="stop-color:#D5D5D5"/>
	<stop  offset="0.8892" style="stop-color:#BFBFBF"/>
	<stop  offset="0.9311" style="stop-color:#A1A1A1"/>
	<stop  offset="0.9458" style="stop-color:#959595"/>
	<stop  offset="0.9474" style="stop-color:#909090"/>
	<stop  offset="0.9591" style="stop-color:#717171"/>
	<stop  offset="0.969" style="stop-color:#5E5E5E"/>
	<stop  offset="0.9759" style="stop-color:#575757"/>
</linearGradient>
<path fill="url(#SVGID_5_)" d="M920.503,1054.49h-0.057c-0.501,2.566-4.942,5.065-19.149,6.146c-26.304,2-65.476,1.716-65.476,1.716
	H734.933h-64.74H569.304c0,0-39.172,0.284-65.477-1.716c-14.206-1.081-18.646-3.58-19.147-6.146h-0.058c0,0-0.881,6.649,6.624,9.436
	c7.506,2.787,35.813,3.855,53.612,3.855c10.475,0,74.453,0,125.334,0c35.57,0,64.74,0,64.74,0c50.881,0,114.859,0,125.335,0
	c17.798,0,46.105-1.068,53.61-3.855C921.384,1061.14,920.503,1054.49,920.503,1054.49z"/>
<radialGradient id="SVGID_6_" cx="276.2266" cy="611.374" r="75.8894" fx="299.5265" fy="606.4557" gradientTransform="matrix(1.3188 -1.0967 1.6165 1.9422 -878.6755 163.9256)" gradientUnits="userSpaceOnUse">
	<stop  offset="0.2597" style="stop-color:#EBECEE"/>
	<stop  offset="0.4382" style="stop-color:#E7E8EA;stop-opacity:0.7253"/>
	<stop  offset="0.9096" style="stop-color:#DFE0E4;stop-opacity:0"/>
</radialGradient>
<path fill="url(#SVGID_6_)" d="M558.277,948.031c-3.224,0-6.409,0.166-9.547,0.488c-2.479,22.021-5.625,42.489-9.162,48.38
	c-8.577,14.292-47.465,48.589-51.18,51.733c-3.716,3.143-10.865,10.001,15.438,12.004c26.305,2,65.477,1.716,65.477,1.716h78.622
	c1.754-7.098,2.702-14.513,2.702-22.149C650.628,989.296,609.279,948.031,558.277,948.031z"/>
<radialGradient id="SVGID_7_" cx="2266.4805" cy="611.374" r="75.8894" fx="2289.7803" fy="606.4557" gradientTransform="matrix(-1.3188 -1.0967 -1.6165 1.9422 4908.5684 2346.7031)" gradientUnits="userSpaceOnUse">
	<stop  offset="0.2597" style="stop-color:#EBECEE"/>
	<stop  offset="0.4382" style="stop-color:#E7E8EA;stop-opacity:0.7253"/>
	<stop  offset="0.9096" style="stop-color:#DFE0E4;stop-opacity:0"/>
</radialGradient>
<path fill="url(#SVGID_7_)" d="M846.88,948.031c3.224,0,6.408,0.166,9.546,0.488c2.479,22.021,5.626,42.489,9.162,48.38
	c8.577,14.292,47.465,48.589,51.181,51.733c3.716,3.143,10.864,10.001-15.439,12.004c-26.304,2-65.476,1.716-65.476,1.716H757.23
	c-1.754-7.098-2.702-14.513-2.702-22.149C754.528,989.296,795.877,948.031,846.88,948.031z"/>
<g>
	
		<radialGradient id="SVGID_8_" cx="409.5996" cy="22.2476" r="19.7979" gradientTransform="matrix(1.7155 0 0 1.7148 0.0012 7.629395e-04)" gradientUnits="userSpaceOnUse">
		<stop  offset="0" style="stop-color:#595959"/>
		<stop  offset="0.4488" style="stop-color:#2D2D2D"/>
		<stop  offset="0.8532" style="stop-color:#020202"/>
	</radialGradient>
	<circle fill="url(#SVGID_8_)" cx="702.707" cy="25.266" r="13.86"/>
	
		<radialGradient id="SVGID_9_" cx="409.8008" cy="22.894" r="15.3564" gradientTransform="matrix(1.7155 0 0 1.7148 0.0012 7.629395e-04)" gradientUnits="userSpaceOnUse">
		<stop  offset="0" style="stop-color:#595959"/>
		<stop  offset="0.4488" style="stop-color:#2D2D2D"/>
		<stop  offset="0.8532" style="stop-color:#020202"/>
	</radialGradient>
	<circle fill="url(#SVGID_9_)" cx="702.707" cy="25.266" r="12.335"/>
	<linearGradient id="SVGID_10_" gradientUnits="userSpaceOnUse" x1="702.8076" y1="35.4507" x2="702.8076" y2="19.3777">
		<stop  offset="0" style="stop-color:#595959"/>
		<stop  offset="0.1569" style="stop-color:#535353"/>
		<stop  offset="0.3679" style="stop-color:#424242"/>
		<stop  offset="0.6097" style="stop-color:#262626"/>
		<stop  offset="0.8532" style="stop-color:#020202"/>
	</linearGradient>
	<circle fill="url(#SVGID_10_)" cx="702.807" cy="25.266" r="10.325"/>
	
		<radialGradient id="SVGID_11_" cx="409.5996" cy="8.9971" r="8.0856" gradientTransform="matrix(1.7155 0 0 1.7148 0.0012 7.629395e-04)" gradientUnits="userSpaceOnUse">
		<stop  offset="0.1265" style="stop-color:#454545"/>
		<stop  offset="0.3126" style="stop-color:#3F3F3F"/>
		<stop  offset="0.5628" style="stop-color:#2E2E2E"/>
		<stop  offset="0.8484" style="stop-color:#121212"/>
		<stop  offset="1" style="stop-color:#000000"/>
	</radialGradient>
	<circle fill="url(#SVGID_11_)" cx="702.706" cy="25.266" r="9.494"/>
	
		<radialGradient id="SVGID_12_" cx="409.5986" cy="15.8237" r="5.2557" gradientTransform="matrix(1.7155 0 0 1.7148 0.0012 7.629395e-04)" gradientUnits="userSpaceOnUse">
		<stop  offset="0.4535" style="stop-color:#454545"/>
		<stop  offset="0.8532" style="stop-color:#454545;stop-opacity:0"/>
	</radialGradient>
	<circle fill="url(#SVGID_12_)" cx="702.706" cy="24.937" r="9.494"/>
	<g>
		
			<radialGradient id="SVGID_13_" cx="409.6055" cy="14.6865" r="4.3554" gradientTransform="matrix(1.7155 0 0 1.7148 0.0012 7.629395e-04)" gradientUnits="userSpaceOnUse">
			<stop  offset="0" style="stop-color:#97BADA"/>
			<stop  offset="0.0553" style="stop-color:#91B5D5"/>
			<stop  offset="0.1294" style="stop-color:#80A7C6"/>
			<stop  offset="0.2139" style="stop-color:#6490AD"/>
			<stop  offset="0.2349" style="stop-color:#5C89A6"/>
			<stop  offset="0.3554" style="stop-color:#3A5F7C"/>
			<stop  offset="0.3609" style="stop-color:#3E6380"/>
			<stop  offset="0.3824" style="stop-color:#476F8C"/>
			<stop  offset="0.4126" style="stop-color:#4C7593"/>
			<stop  offset="0.494" style="stop-color:#4E7795"/>
			<stop  offset="0.4953" style="stop-color:#4C7592"/>
			<stop  offset="0.5063" style="stop-color:#3F6581"/>
			<stop  offset="0.5198" style="stop-color:#355A75"/>
			<stop  offset="0.5383" style="stop-color:#30546E"/>
			<stop  offset="0.5843" style="stop-color:#2E526C"/>
			<stop  offset="0.5911" style="stop-color:#284860"/>
			<stop  offset="0.6047" style="stop-color:#1F3B4F"/>
			<stop  offset="0.6215" style="stop-color:#193144"/>
			<stop  offset="0.6452" style="stop-color:#162C3D"/>
			<stop  offset="0.7108" style="stop-color:#152A3B"/>
			<stop  offset="0.8253" style="stop-color:#395D77"/>
			<stop  offset="0.8279" style="stop-color:#34546D"/>
			<stop  offset="0.8351" style="stop-color:#294157"/>
			<stop  offset="0.8436" style="stop-color:#213146"/>
			<stop  offset="0.8541" style="stop-color:#1B273B"/>
			<stop  offset="0.8688" style="stop-color:#182134"/>
			<stop  offset="0.9096" style="stop-color:#171F32"/>
			<stop  offset="0.9518" style="stop-color:#A2C2CD"/>
			<stop  offset="0.9553" style="stop-color:#99B6C0"/>
			<stop  offset="0.9862" style="stop-color:#495154"/>
			<stop  offset="1" style="stop-color:#292929"/>
		</radialGradient>
		<circle fill="url(#SVGID_13_)" cx="702.707" cy="25.187" r="7.536"/>
		
			<radialGradient id="SVGID_14_" cx="410.5039" cy="15.8784" r="4.2307" gradientTransform="matrix(1.7155 0 0 1.7148 0.0012 7.629395e-04)" gradientUnits="userSpaceOnUse">
			<stop  offset="0" style="stop-color:#152A3B;stop-opacity:0"/>
			<stop  offset="0.5738" style="stop-color:#152839;stop-opacity:0.7007"/>
			<stop  offset="0.7802" style="stop-color:#172134;stop-opacity:0.9529"/>
			<stop  offset="0.8188" style="stop-color:#171F32"/>
		</radialGradient>
		<circle fill="url(#SVGID_14_)" cx="702.707" cy="25.187" r="4.761"/>
		
			<radialGradient id="SVGID_15_" cx="409.7559" cy="14.8369" r="3.5363" gradientTransform="matrix(1.7155 0 0 1.7148 0.0012 7.629395e-04)" gradientUnits="userSpaceOnUse">
			<stop  offset="0.0241" style="stop-color:#FFFFFF;stop-opacity:0"/>
			<stop  offset="0.1938" style="stop-color:#F9FDFF;stop-opacity:0.1157"/>
			<stop  offset="0.4226" style="stop-color:#E8F8FF;stop-opacity:0.2716"/>
			<stop  offset="0.5964" style="stop-color:#D6F2FF;stop-opacity:0.39"/>
			<stop  offset="0.7578" style="stop-color:#DCF5FF;stop-opacity:0.5381"/>
			<stop  offset="0.8253" style="stop-color:#E0F7FF;stop-opacity:0.6"/>
			<stop  offset="1" style="stop-color:#FFFFFF;stop-opacity:0.87"/>
		</radialGradient>
		<path fill="url(#SVGID_15_)" d="M708.976,25.721c-0.8-0.494-1.74-0.785-2.749-0.785c-2.894,0-5.239,2.344-5.239,5.237
			c0,0.339,0.035,0.67,0.096,0.991c0.568,0.173,1.17,0.268,1.795,0.268C706.119,31.432,708.766,28.91,708.976,25.721z"/>
		
			<radialGradient id="SVGID_16_" cx="409.6426" cy="14.8369" r="3.7491" gradientTransform="matrix(1.7155 0 0 1.7148 0.0012 7.629395e-04)" gradientUnits="userSpaceOnUse">
			<stop  offset="0.3795" style="stop-color:#FFFFFF"/>
			<stop  offset="0.6226" style="stop-color:#FDFEFF;stop-opacity:0.6719"/>
			<stop  offset="0.7101" style="stop-color:#F6FCFF;stop-opacity:0.5536"/>
			<stop  offset="0.7723" style="stop-color:#EBF9FF;stop-opacity:0.4697"/>
			<stop  offset="0.8224" style="stop-color:#DAF3FF;stop-opacity:0.402"/>
			<stop  offset="0.8313" style="stop-color:#D6F2FF;stop-opacity:0.39"/>
			<stop  offset="0.8476" style="stop-color:#D0F0FF;stop-opacity:0.4254"/>
			<stop  offset="0.8686" style="stop-color:#C0ECFF;stop-opacity:0.4713"/>
			<stop  offset="0.8923" style="stop-color:#A5E5FF;stop-opacity:0.5229"/>
			<stop  offset="0.9178" style="stop-color:#80DBFF;stop-opacity:0.5784"/>
			<stop  offset="0.9277" style="stop-color:#70D6FF;stop-opacity:0.6"/>
			<stop  offset="1" style="stop-color:#FFFFFF;stop-opacity:0"/>
		</radialGradient>
		<path fill="url(#SVGID_16_)" d="M697.182,22.456l2.396,1.401c-0.178,0.387-0.283,0.812-0.3,1.261h-2.771
			C696.527,24.159,696.768,23.257,697.182,22.456z M697.458,21.976l2.394,1.391c0.535-0.783,1.393-1.326,2.381-1.44v-2.773
			C700.222,19.28,698.478,20.372,697.458,21.976z"/>
		
			<radialGradient id="SVGID_17_" cx="462.1885" cy="-475.6606" r="1.0967" gradientTransform="matrix(1.4167 -0.9672 0.9675 1.4161 510.0374 1149.1602)" gradientUnits="userSpaceOnUse">
			<stop  offset="0.0241" style="stop-color:#FFFFFF;stop-opacity:0"/>
			<stop  offset="1" style="stop-color:#FFFFFF;stop-opacity:0.87"/>
		</radialGradient>
		<path fill="url(#SVGID_17_)" d="M706.647,28.131c0.3,0.441,0.068,1.122-0.52,1.524c-0.588,0.401-1.309,0.369-1.608-0.072
			c-0.302-0.44-0.068-1.122,0.518-1.523C705.627,27.659,706.346,27.69,706.647,28.131z"/>
		
			<radialGradient id="SVGID_18_" cx="462.2197" cy="-477.2783" r="0.6461" gradientTransform="matrix(1.4167 -0.9672 0.9675 1.4161 510.0374 1149.1602)" gradientUnits="userSpaceOnUse">
			<stop  offset="0" style="stop-color:#FFFFFF;stop-opacity:0.87"/>
			<stop  offset="1" style="stop-color:#FFFFFF;stop-opacity:0"/>
		</radialGradient>
		<path fill="url(#SVGID_18_)" d="M704.278,25.982c0.176,0.259,0.04,0.661-0.307,0.897c-0.345,0.237-0.771,0.218-0.948-0.042
			s-0.04-0.662,0.307-0.897C703.677,25.704,704.101,25.723,704.278,25.982z"/>
		
			<radialGradient id="SVGID_19_" cx="462.2617" cy="-479.21" r="0.4405" gradientTransform="matrix(1.4167 -0.9672 0.9675 1.4161 510.0374 1149.1602)" gradientUnits="userSpaceOnUse">
			<stop  offset="0" style="stop-color:#FFFFFF;stop-opacity:0.87"/>
			<stop  offset="1" style="stop-color:#FFFFFF;stop-opacity:0"/>
		</radialGradient>
		<path fill="url(#SVGID_19_)" d="M702.082,23.287c0.119,0.176,0.026,0.45-0.21,0.61c-0.236,0.162-0.524,0.148-0.645-0.028
			c-0.121-0.177-0.028-0.45,0.207-0.611C701.67,23.096,701.96,23.11,702.082,23.287z"/>
	</g>
</g>
</svg>
